ffmpeg version N-55863-g9f38fac053-static https://johnvansickle.com/ffmpeg/  Copyright (c) 2000-2021 the FFmpeg developers
  built with gcc 8 (Debian 8.3.0-6)
  configuration: --enable-gpl --enable-version3 --enable-static --disable-debug --disable-ffplay --disable-indev=sndio --disable-outdev=sndio --cc=gcc --enable-fontconfig --enable-frei0r --enable-gnutls --enable-gmp --enable-libgme --enable-gray --enable-libaom --enable-libfribidi --enable-libass --enable-libvmaf --enable-libfreetype --enable-libmp3lame --enable-libopencore-amrnb --enable-libopencore-amrwb --enable-libopenjpeg --enable-librubberband --enable-libsoxr --enable-libspeex --enable-libsrt --enable-libvorbis --enable-libopus --enable-libtheora --enable-libvidstab --enable-libvo-amrwbenc --enable-libvpx --enable-libwebp --enable-libx264 --enable-libx265 --enable-libxml2 --enable-libdav1d --enable-libxvid --enable-libzvbi --enable-libzimg
  libavutil      56. 64.100 / 56. 64.100
  libavcodec     58.119.100 / 58.119.100
  libavformat    58. 65.101 / 58. 65.101
  libavdevice    58. 11.103 / 58. 11.103
  libavfilter     7.100.100 /  7.100.100
  libswscale      5.  8.100 /  5.  8.100
  libswresample   3.  8.100 /  3.  8.100
  libpostproc    55.  8.100 / 55.  8.100
Input #0, mov,mp4,m4a,3gp,3g2,mj2, from '/home/yiaapc5/public_html/f_data/data_userfiles/user_uploads/3232170153/v/1614778944.mp4':
  Metadata:
    major_brand     : isom
    minor_version   : 512
    compatible_brands: isomiso2avc1mp41
    encoder         : Lavf58.54.100
  Duration: 00:03:01.07, start: 0.000000, bitrate: 3099 kb/s
    Stream #0:0(und): Video: h264 (Main) (avc1 / 0x31637661), yuv420p(tv), 728x364 [SAR 1:1 DAR 2:1], 2995 kb/s, 21.88 fps, 100 tbr, 90k tbn, 60 tbc (default)
    Metadata:
      handler_name    : VideoHandler
      vendor_id       : [0][0][0][0]
    Stream #0:1(und): Audio: aac (LC) (mp4a / 0x6134706D), 44100 Hz, stereo, fltp, 115 kb/s (default)
    Metadata:
      handler_name    : SoundHandler
      vendor_id       : [0][0][0][0]
Codec AVOption rc_eq (Set rate control equation. When computing the expression, besides the standard functions defined in the section 'Expression Evaluation', the following functions are available: bits2qp(bits), qp2bits(qp). Also the following constants are available: iTex pTex tex mv fCode iCount mcVar var isI isP isB avgQP qComp avgIITex avgPITex avgPPTex avgBPTex avgTex.) specified for output file #0 (/home/yiaapc5/public_html/f_data/data_userfiles/user_media/3232170153/v/66b9d6dd1e83be65b133eea052d4912d.mob.nomob.mp4) has not been used for any stream. The most likely reason is either wrong type (e.g. a video option with no video streams) or that it is a private option of some encoder which was not actually used for any stream.
Stream mapping:
  Stream #0:0 -> #0:0 (h264 (native) -> h264 (libx264))
  Stream #0:1 -> #0:1 (aac (native) -> aac (native))
Press [q] to stop, [?] for help
[libx264 @ 0x7209a40] Application has requested 32 threads. Using a thread count greater than 16 is not recommended.
[libx264 @ 0x7209a40] using SAR=1/1
[libx264 @ 0x7209a40] frame MB size (30x15) > level limit (396)
[libx264 @ 0x7209a40] VBV bitrate (10000) > level limit (768)
[libx264 @ 0x7209a40] VBV buffer (10000) > level limit (2000)
[libx264 @ 0x7209a40] MB rate (13500) > level limit (11880)
[libx264 @ 0x7209a40] using cpu capabilities: MMX2 SSE2Fast SSSE3 SSE4.2 AVX
[libx264 @ 0x7209a40] profile Constrained Baseline, level 1.3, 4:2:0, 8-bit
[libx264 @ 0x7209a40] 264 - core 161 r3040 35417dc - H.264/MPEG-4 AVC codec - Copyleft 2003-2021 - http://www.videolan.org/x264.html - options: cabac=0 ref=1 deblock=1:0:0 analyse=0x1:0 me=hex subme=1 psy=1 psy_rd=1.00:0.00 mixed_ref=0 me_range=16 chroma_me=1 trellis=0 8x8dct=0 cqm=0 deadzone=21,11 fast_pskip=1 chroma_qp_offset=0 threads=32 lookahead_threads=1 sliced_threads=0 nr=0 decimate=1 interlaced=0 bluray_compat=0 constrained_intra=0 bframes=0 weightp=0 keyint=300 keyint_min=25 scenecut=40 intra_refresh=0 rc_lookahead=30 rc=abr mbtree=1 bitrate=1000 ratetol=1.0 qcomp=0.60 qpmin=10 qpmax=51 qpstep=4 vbv_maxrate=10000 vbv_bufsize=10000 nal_hrd=none filler=0 ip_ratio=1.41 aq=1:1.00
Output #0, mp4, to '/home/yiaapc5/public_html/f_data/data_userfiles/user_media/3232170153/v/66b9d6dd1e83be65b133eea052d4912d.mob.nomob.mp4':
  Metadata:
    major_brand     : isom
    minor_version   : 512
    compatible_brands: isomiso2avc1mp41
    encoder         : Lavf58.65.101
    Stream #0:0(und): Video: h264 (avc1 / 0x31637661), yuv420p(tv, progressive), 480x240 [SAR 1:1 DAR 2:1], q=2-31, 1000 kb/s, 30 fps, 15360 tbn (default)
    Metadata:
      handler_name    : VideoHandler
      vendor_id       : [0][0][0][0]
      encoder         : Lavc58.119.100 libx264
    Side data:
      cpb: bitrate max/min/avg: 10000000/0/1000000 buffer size: 10000000 vbv_delay: N/A
    Stream #0:1(und): Audio: aac (LC) (mp4a / 0x6134706D), 44100 Hz, stereo, fltp, 115 kb/s (default)
    Metadata:
      handler_name    : SoundHandler
      vendor_id       : [0][0][0][0]
      encoder         : Lavc58.119.100 aac
frame=   21 fps=0.0 q=0.0 size=       0kB time=00:00:01.25 bitrate=   0.3kbits/s dup=20 drop=0 speed=  50x    frame=  330 fps=0.0 q=26.0 size=    1280kB time=00:00:12.07 bitrate= 868.5kbits/s dup=109 drop=0 speed=  23x    frame=  701 fps=684 q=27.0 size=    2816kB time=00:00:23.93 bitrate= 963.6kbits/s dup=218 drop=0 speed=23.3x    frame= 1033 fps=677 q=26.0 size=    4352kB time=00:00:34.94 bitrate=1020.2kbits/s dup=308 drop=0 speed=22.9x    frame= 1341 fps=662 q=28.0 size=    5888kB time=00:00:45.23 bitrate=1066.4kbits/s dup=396 drop=0 speed=22.3x    frame= 1713 fps=678 q=28.0 size=    7680kB time=00:00:57.63 bitrate=1091.7kbits/s dup=507 drop=0 speed=22.8x    frame= 2057 fps=679 q=25.0 size=    8704kB time=00:01:09.10 bitrate=1031.9kbits/s dup=601 drop=0 speed=22.8x    frame= 2390 fps=675 q=25.0 size=    9984kB time=00:01:20.20 bitrate=1019.8kbits/s dup=694 drop=0 speed=22.7x    frame= 2761 fps=683 q=24.0 size=   11776kB time=00:01:32.53 bitrate=1042.6kbits/s dup=797 drop=0 speed=22.9x    frame= 3142 fps=692 q=25.0 size=   13568kB time=00:01:45.85 bitrate=1050.0kbits/s dup=894 drop=0 speed=23.3x    frame= 3528 fps=700 q=25.0 size=   15616kB time=00:01:58.11 bitrate=1083.0kbits/s dup=994 drop=0 speed=23.4x    More than 1000 frames duplicated
frame= 3920 fps=707 q=26.0 size=   17408kB time=00:02:11.21 bitrate=1086.8kbits/s dup=1097 drop=0 speed=23.7x    frame= 4297 fps=711 q=27.0 size=   19456kB time=00:02:23.75 bitrate=1108.7kbits/s dup=1195 drop=0 speed=23.8x    frame= 4690 fps=717 q=28.0 size=   21504kB time=00:02:36.80 bitrate=1123.4kbits/s dup=1308 drop=0 speed=  24x    frame= 5044 fps=716 q=29.0 size=   23296kB time=00:02:49.22 bitrate=1127.7kbits/s dup=1378 drop=0 speed=  24x    frame= 5371 fps=712 q=27.0 size=   24320kB time=00:02:59.58 bitrate=1109.4kbits/s dup=1455 drop=0 speed=23.8x    frame= 5402 fps=707 q=-1.0 Lsize=   25021kB time=00:03:00.99 bitrate=1132.5kbits/s dup=1462 drop=0 speed=23.7x    
video:22322kB audio:2549kB subtitle:0kB other streams:0kB global headers:0kB muxing overhead: 0.605636%
[libx264 @ 0x7209a40] frame I:93    Avg QP:19.97  size: 19879
[libx264 @ 0x7209a40] frame P:5309  Avg QP:22.35  size:  3957
[libx264 @ 0x7209a40] mb I  I16..4:  2.8%  0.0% 97.2%
[libx264 @ 0x7209a40] mb P  I16..4:  6.5%  0.0%  0.0%  P16..4: 52.9%  0.0%  0.0%  0.0%  0.0%    skip:40.6%
[libx264 @ 0x7209a40] final ratefactor: 20.30
[libx264 @ 0x7209a40] coded y,uvDC,uvAC intra: 81.8% 68.8% 33.2% inter: 31.9% 20.0% 3.0%
[libx264 @ 0x7209a40] i16 v,h,dc,p: 22% 36% 20% 22%
[libx264 @ 0x7209a40] i4 v,h,dc,ddl,ddr,vr,hd,vl,hu: 18% 24%  9%  8%  8%  8%  8%  7% 10%
[libx264 @ 0x7209a40] i8c dc,h,v,p: 37% 31% 19% 13%
[libx264 @ 0x7209a40] kb/s:1015.49
[aac @ 0x7259bc0] Qavg: 460.298
